<?xml version="1.0" encoding="utf-8"?>
<!-- Generator: Adobe Illustrator 21.1.0, SVG Export Plug-In . SVG Version: 6.00 Build 0)  -->
<svg version="1.1" id="圖層_1" xmlns="http://www.w3.org/2000/svg" xmlns:xlink="http://www.w3.org/1999/xlink" x="0px" y="0px"
	 width="140" height= "20" style="enable-background:new 0 0 140 20;" xml:space="preserve">
<style type="text/css">
	.st0{fill:#666666;}
	.st1{fill:#0066FF;}
	.st2{font-family:'Verdana';}
	.st3{font-size:13px;}
	.st4{fill:#FFFFFF;}
</style>
<title>工作區域 1</title>
<g id="圖層_1_1_">
	<path class="st0" d="M3.5,0h67.2c1.9,0,3.5,1.5,3.5,3.5v13.1c0,1.9-1.6,3.5-3.5,3.5H3.5c-1.9,0-3.5-1.6-3.5-3.5V3.5
		C0,1.5,1.6,0,3.5,0z"/>
	<path class="st1" d="M73.3,0h63.2c1.9,0,3.5,1.6,3.5,3.5v13.1c0,1.9-1.6,3.5-3.5,3.5H73.3c-1.9,0-3.5-1.6-3.5-3.5V3.5
		C69.8,1.5,71.4,0,73.3,0z"/>
	<rect x="69.2" class="st0" width="5" height="20"/>
</g>
<g id="圖層_2">
	<text transform="matrix(1 0 0 1 9 15.5)" class="st2 st3">platform</text>
	<text transform="matrix(1 0 0 1 9 14.5)" class="st4 st2 st3">platform</text>
	<text transform="matrix(1 0 0 1 82.33 16)" class="st2 st3">iOS</text>
	<text transform="matrix(1 0 0 1 82.33 15)" class="st4 st2 st3">iOS</text>
</g>
</svg>
