<?xml version="1.0" encoding="utf-8"?>
<!-- Generator: Adobe Illustrator 21.1.0, SVG Export Plug-In . SVG Version: 6.00 Build 0)  -->
<svg version="1.1" id="圖層_1" xmlns="http://www.w3.org/2000/svg" xmlns:xlink="http://www.w3.org/1999/xlink" x="0px" y="0px"
	 width="90" height= "20" style="enable-background:new 0 0 90 20;" xml:space="preserve">
<style type="text/css">
	.st0{fill:#666666;}
	.st1{fill:#FF1D25;}
	.st2{font-family:'Verdana';}
	.st3{font-size:13px;}
	.st4{fill:#FFFFFF;}
</style>
<g id="圖層_1_1_">
	<path class="st0" d="M51.9,20H2.5C1.2,20,0,18.4,0,16.5v-13C0,1.6,1.2,0,2.5,0h49.4c1.4,0,2.5,1.6,2.5,3.5v13
		C54.4,18.4,53.3,20,51.9,20z"/>
	<path class="st1" d="M87.5,20H52.6c-1.4,0-2.5-1.6-2.5-3.5v-13c0-1.9,1.2-3.5,2.5-3.5h34.8C88.8,0,90,1.6,90,3.5v13
		C90,18.4,88.8,20,87.5,20z"/>
	<rect x="50.1" class="st0" width="2.2" height="20"/>
</g>
<g id="圖層_2">
	<text id="license_x5F_black" transform="matrix(0.9048 0 0 1 5.6387 15.6289)" class="st2 st3">license</text>
	<text transform="matrix(0.9048 0 0 1 5.6387 14.6289)" class="st4 st2 st3">license</text>
	<text id="MIT_x5F_black" transform="matrix(0.9048 0 0 1 59.877 16.4297)" class="st2 st3">MIT</text>
	<text transform="matrix(0.9048 0 0 1 59.877 15.4297)" class="st4 st2 st3">MIT</text>
</g>
</svg>
