<?xml version="1.0" encoding="utf-8"?>
<!-- Generator: Adobe Illustrator 21.1.0, SVG Export Plug-In . SVG Version: 6.00 Build 0)  -->
<svg version="1.1" id="圖層_1" xmlns="http://www.w3.org/2000/svg" xmlns:xlink="http://www.w3.org/1999/xlink" x="0px" y="0px"
	 width="90" height= "20" style="enable-background:new 0 0 90 20;" xml:space="preserve">
<style type="text/css">
	.st0{fill:#555555;}
	.st1{fill:#ff9933;}
	.st2{display:none;fill:url(#SVGID_1_);}
	.st3{enable-background:new    ;}
	.st4{fill:#010101;}
	.st5{font-family:'Verdana';}
	.st6{font-size:11px;}
	.st7{fill:#FFFFFF;}
</style>
<path class="st0" d="M3,0h84c1.7,0,3,1.3,3,3v14c0,1.7-1.3,3-3,3H3c-1.7,0-3-1.3-3-3V3C0,1.3,1.3,0,3,0z"/>
<path class="st1" d="M54.4,0h33.5C89,0,90,1.3,90,3v14c0,1.7-1,3-2.1,3H54.4c-1.2,0-2.1-1.3-2.1-3V3C52.2,1.3,53.2,0,54.4,0z"/>
<path class="st1" d="M51.2,0h4v20h-4V0z"/>
<linearGradient id="SVGID_1_" gradientUnits="userSpaceOnUse" x1="-23.2333" y1="9.094947e-13" x2="-23.2333" y2="1" gradientTransform="matrix(90 0 0 20 2136 0)">
	<stop  offset="0" style="stop-color:#BBBBBB;stop-opacity:0.1"/>
	<stop  offset="1" style="stop-color:#000000;stop-opacity:0.1"/>
</linearGradient>
<path class="st2" d="M3,0h84c1.7,0,3,1.3,3,3v14c0,1.7-1.3,3-3,3H3c-1.7,0-3-1.3-3-3V3C0,1.3,1.3,0,3,0z"/>
<g>
	<g class="st3">
		<text transform="matrix(1 0 0 1 5.1475 15)" class="st4 st5 st6">version</text>
	</g>
	<text transform="matrix(1 0 0 1 5.1476 13.9998)" class="st7 st5 st6">version</text>
	<g class="st3">
		<text transform="matrix(1 0 0 1 56.1226 15.5833)" class="st4 st5 st6">1.0.7</text>
	</g>
	<text transform="matrix(1 0 0 1 56.1226 14.9998)" class="st7 st5 st6">1.0.7</text>
</g>
</svg>
